<svg xmlns="http://www.w3.org/2000/svg" xml:space="preserve" width="2000" height="2500" data-id="lg_Gw3mTdAKff70Tzi5BW" data-version="1" viewBox="0 0 2000 1500"><path fill="red" stroke="transparent" d="M0 0h2000v1500H0z"/><g data-padding="20"><g transform="translate(-988.84 -696.213)scale(1.79291)"><rect width="152.542" height="370.64" x="634.181" y="221.481" fill="none" rx="0" ry="0" transform="translate(399.46 494.33)"/><path d="M1082.522 1004.17h-32.8q-2.62 0-2.62-2.3l-.33-223.37q0-2.62 2.62-2.62h29.52l55.44 129.23-1.64-126.61q0-2.62 2.95-2.62h32.47q1.97 0 1.97 2.62l.33 223.7q0 1.97-1.64 1.97h-28.87l-56.74-120.71 2.29 118.08q0 2.63-2.95 2.63m26.755-363.067c12.825 0 23.4-10.575 23.4-23.4 0-5.175-1.8-10.35-4.95-14.4l35.775-35.775c4.275 3.825 9.9 6.075 15.525 6.075 12.825 0 23.4-10.575 23.4-23.4s-10.575-23.4-23.4-23.4-23.4 10.575-23.4 23.4c0 2.925.45 5.4 1.575 8.325l-38.025 38.025c-3.15-1.575-6.525-2.25-9.9-2.25-12.825 0-23.4 10.575-23.4 23.4s10.575 23.4 23.4 23.4"/><path d="M1109.277 573.603c12.825 0 23.4-10.575 23.4-23.4s-10.575-23.4-23.4-23.4-23.4 10.575-23.4 23.4 10.575 23.4 23.4 23.4m69.75 20.7c-12.825 0-23.4 10.575-23.4 23.4s10.575 23.4 23.4 23.4 23.4-10.575 23.4-23.4-10.575-23.4-23.4-23.4m-139.5 67.5c-12.825 0-23.4 10.575-23.4 23.4s10.575 23.4 23.4 23.4 23.4-10.575 23.4-23.4-10.575-23.4-23.4-23.4"/><path d="M1179.027 661.803c-10.8 0-20.25 7.425-22.725 18h-24.3c-2.475-10.575-11.925-18-22.725-18-6.75 0-13.05 2.925-17.325 7.875l-36-35.55a23.333 23.333 0 0 0-11.25-39.15v-22.05c10.575-2.475 18-11.925 18-22.725 0-12.825-10.575-23.4-23.4-23.4s-23.175 10.575-23.175 23.4c0 10.8 7.425 20.25 18 22.725v22.05c-10.575 2.475-18 11.925-18 22.725a23.535 23.535 0 0 0 30.6 22.275l39.825 39.825a23.535 23.535 0 0 0 22.725 29.025c10.8 0 20.25-7.425 22.725-18h24.3c2.475 10.575 11.925 18 22.725 18 12.825 0 23.4-10.575 23.4-23.4s-10.575-23.625-23.4-23.625"/></g><path fill="transparent" stroke="transparent" stroke-width="2.009" d="M813.17 187.5h373.66v1125H813.17z"/></g></svg>